<svg xmlns="http://www.w3.org/2000/svg" width="75" height="75" viewBox="0 0 381.76 381.759" class="icon"><g fill="#a7cd0e"><path d="M167.882 322.253s34.692-34.705 40.625-40.625c5.909-5.92 3.597-89.978 16.699-103.08C238.307 165.43 381.76 21.976 381.76 21.976L363.765 3.982S219.798 147.949 207.199 160.537c-12.588 12.594-103.325 5.681-108.72 11.087-5.389 5.407-40.607 40.619-40.607 40.619l110.01 110.01zM0 287.537l3.959 3.959c1.745-1.775 3.479-3.538 5.225-5.301 12.325-12.168 24.691-24.289 34.208-33.141 9.505-8.852 15.986-14.619 15.986-14.619s-5.751 6.492-14.608 15.998c-8.851 9.527-20.972 21.883-33.134 34.213-1.781 1.74-3.544 3.48-5.325 5.221l2.511 2.51c1.746-1.775 3.468-3.538 5.226-5.324 12.331-12.156 24.697-24.289 34.202-33.141 9.517-8.839 15.998-14.596 15.998-14.596s-5.751 6.469-14.614 15.998c-8.846 9.504-20.972 21.883-33.134 34.201l-5.308 5.221 2.762 2.768a1047.64 1047.64 0 0 1 5.226-5.313c12.325-12.168 24.68-24.288 34.196-33.14 9.517-8.852 15.998-14.62 15.998-14.62s-5.763 6.493-14.608 16.009c-8.851 9.518-20.972 21.872-33.134 34.203a1537.458 1537.458 0 0 1-5.325 5.22l2.131 2.125c1.745-1.763 3.479-3.538 5.226-5.313 12.325-12.167 24.691-24.288 34.208-33.139 9.522-8.852 16.003-14.62 16.003-14.62s-5.716 6.539-14.579 16.056c-8.845 9.518-20.972 21.883-33.134 34.203l-5.319 5.23 1.6 1.6c1.746-1.763 3.48-3.526 5.226-5.312C40 292.535 52.36 280.414 61.877 271.562c9.511-8.839 15.992-14.596 15.992-14.596s-5.757 6.48-14.603 15.998c-8.852 9.517-20.972 21.883-33.134 34.201-1.781 1.752-3.538 3.48-5.307 5.232l2.248 2.242c1.746-1.764 3.48-3.527 5.226-5.313 12.325-12.156 24.691-24.288 34.208-33.128 9.517-8.852 15.998-14.62 15.998-14.62s-5.739 6.481-14.585 15.998c-8.852 9.517-20.978 21.883-33.134 34.214a5319.491 5319.491 0 0 0-5.325 5.23l1.997 1.986c1.746-1.764 3.48-3.527 5.237-5.302 12.331-12.179 24.68-24.3 34.214-33.14 9.505-8.852 15.998-14.597 15.998-14.597s-5.763 6.481-14.614 15.997c-8.846 9.518-20.96 21.884-33.134 34.215l-5.307 5.219 2.499 2.5c1.746-1.764 3.48-3.527 5.226-5.313 12.325-12.167 24.691-24.288 34.208-33.14s15.998-14.619 15.998-14.619-5.751 6.492-14.608 16.009c-8.851 9.517-20.972 21.871-33.134 34.202-1.78 1.752-3.538 3.48-5.312 5.231l2.504 2.511a1999.56 1999.56 0 0 1 5.22-5.325c12.331-12.155 24.697-24.276 34.214-33.128s15.998-14.619 15.998-14.619-5.751 6.492-14.614 15.997c-8.845 9.528-20.972 21.883-33.134 34.202-1.769 1.764-3.539 3.492-5.307 5.243l2.248 2.242c1.746-1.774 3.468-3.526 5.226-5.302 12.331-12.168 24.691-24.288 34.208-33.139 9.523-8.852 16.003-14.621 16.003-14.621s-5.769 6.493-14.602 16.01c-8.851 9.518-20.972 21.883-33.134 34.203a2338.75 2338.75 0 0 1-5.307 5.242l2.376 2.371c1.746-1.775 3.48-3.527 5.226-5.313 12.331-12.155 24.68-24.276 34.214-33.128 9.505-8.852 15.998-14.619 15.998-14.619s-5.751 6.48-14.614 15.997c-8.845 9.528-20.972 21.883-33.134 34.214-1.792 1.752-3.55 3.479-5.319 5.231l2.376 2.37c1.746-1.787 3.468-3.538 5.226-5.312 12.331-12.168 24.68-24.289 34.202-33.141 9.517-8.851 15.998-14.607 15.998-14.607s-5.763 6.48-14.614 15.998c-8.846 9.517-20.972 21.883-33.134 34.201a2358.79 2358.79 0 0 1-5.319 5.221l1.746 1.739 5.226-5.313c12.325-12.155 24.691-24.287 34.208-33.127 9.517-8.852 15.998-14.62 15.998-14.62s-5.751 6.481-14.608 15.997c-8.852 9.518-20.978 21.883-33.134 34.215-1.77 1.739-3.544 3.491-5.313 5.219l1.354 1.367c1.746-1.775 3.48-3.527 5.226-5.302 12.325-12.167 24.691-24.288 34.208-33.14 9.505-8.852 15.998-14.619 15.998-14.619s-5.763 6.492-14.608 16.021c-8.851 9.517-20.966 21.883-33.134 34.214-1.786 1.74-3.544 3.479-5.313 5.22l2.12 2.113c1.746-1.774 3.468-3.526 5.226-5.325 12.325-12.155 24.691-24.288 34.208-33.127 9.517-8.852 15.998-14.608 15.998-14.608s-5.751 6.492-14.608 15.997c-8.852 9.518-20.979 21.883-33.134 34.215-1.77 1.751-3.544 3.479-5.313 5.219l1.605 1.6c1.746-1.774 3.468-3.525 5.226-5.301 12.325-12.168 24.691-24.289 34.208-33.14 9.517-8.851 15.998-14.62 15.998-14.62s-5.751 6.492-14.608 15.998c-8.851 9.528-20.978 21.883-33.134 34.214-1.786 1.763-3.544 3.503-5.313 5.243l1.869 1.856c1.746-1.763 3.468-3.526 5.226-5.302 12.325-12.167 24.679-24.288 34.208-33.139 9.517-8.852 15.997-14.608 15.997-14.608s-5.762 6.48-14.607 15.997c-8.84 9.518-20.979 21.883-33.134 34.215-1.77 1.763-3.544 3.49-5.313 5.219l1.617 1.611 5.226-5.312c12.325-12.156 24.68-24.289 34.196-33.128 9.517-8.852 15.998-14.62 15.998-14.62s-5.763 6.48-14.608 15.998c-8.851 9.517-20.978 21.883-33.134 34.214a1142.499 1142.499 0 0 1-5.325 5.231l1.483 1.471c1.746-1.763 3.468-3.525 5.226-5.301 12.331-12.168 24.68-24.289 34.214-33.14 9.517-8.852 15.998-14.608 15.998-14.608s-5.763 6.48-14.614 15.998c-8.845 9.517-20.972 21.883-33.134 34.202-1.781 1.763-3.538 3.479-5.319 5.231l4.087 4.075 61.76-61.761-90.224-90.226L0 287.537z"></path></g></svg>